<svg width="325" height="81" viewBox="0 0 325 81" fill="none" xmlns="http://www.w3.org/2000/svg">
<path fill-rule="evenodd" clip-rule="evenodd" d="M116.098 65.8094C116.298 66.0136 116.672 66.1376 117.083 66.1376C117.449 66.1376 117.789 66.0318 117.978 65.8641C118.052 65.7912 118.119 65.7146 118.156 65.6235C118.03 65.6162 117.915 65.587 117.834 65.5141L117.69 65.4011L117.741 65.2552C117.882 64.7739 117.83 64.3802 117.604 64.1505C117.416 63.9645 117.09 63.8843 116.672 63.9208C116.376 63.9536 116.124 64.0994 115.854 64.2562C115.628 64.3875 115.399 64.5224 115.14 64.5844L114.681 64.701V61.5654C114.681 61.2299 114.699 60.8836 114.714 60.5481C114.747 59.9137 114.769 59.3121 114.688 58.8563C114.618 58.4771 114.277 58.2839 113.678 58.2839C113.256 58.2839 112.763 58.3896 112.441 58.5464L112.39 58.6813H111.098L111.879 58.1855C112.031 57.9886 112.334 57.8427 112.649 57.6969C112.926 57.5656 113.267 57.4052 113.322 57.2666C113.359 57.1791 113.393 57.0661 113.337 57.0041C113.3 56.9604 113.13 56.8328 112.434 56.8328C112.364 56.8328 112.297 56.8328 112.219 56.8401L111.916 56.8473L111.86 56.6176C111.779 56.2822 111.779 55.9212 111.779 55.5749C111.79 54.7727 111.742 54.3826 111.261 54.2841C111.135 54.2586 111.017 54.2477 110.883 54.2477C110.48 54.2477 110.076 54.3644 109.655 54.4956C109.458 54.5576 109.259 54.6196 109.055 54.6633V54.7326C109.307 54.7581 109.473 54.8493 109.566 54.9259C109.899 55.2066 109.869 55.6806 109.84 56.1509C109.832 56.3551 109.814 56.5812 109.84 56.7416C109.888 57.0661 110.039 57.1755 110.469 57.1755C110.665 57.1755 110.917 57.15 111.239 57.088L112.057 56.9494L111.609 57.5109C111.376 57.7953 111.098 58.1417 110.82 58.4808L110.58 58.7652L110.276 58.5173C110.125 58.3933 109.951 58.3422 109.71 58.3422C109.318 58.3422 108.851 58.4917 108.396 58.6522C108.17 58.7287 107.963 58.8017 107.752 58.8527V58.9402C107.978 58.9657 108.167 59.0277 108.307 59.1444C108.615 59.4069 108.585 59.8153 108.555 60.2564C108.548 60.3913 108.537 60.5299 108.537 60.6648V61.9555C108.537 62.2436 108.522 62.528 108.518 62.8014C108.481 63.7822 108.448 64.712 108.929 65.1057C109.129 65.2698 109.421 65.35 109.825 65.35H109.854C110.595 65.3354 111.02 65.0255 111.431 64.5916C111.398 64.5807 111.361 64.5734 111.339 64.5661C111.25 64.6281 111.116 64.7047 110.909 64.7047C110.857 64.7047 110.794 64.6974 110.739 64.6864L110.469 64.6318L110.484 64.4093C110.521 63.9353 110.498 63.3702 110.476 62.7686C110.443 62.1014 110.428 61.4159 110.484 60.8544C110.509 60.5299 110.572 60.3148 110.665 60.1653C110.887 59.8226 111.442 59.5382 111.905 59.5382C112.367 59.5382 112.664 59.7752 112.738 60.1653C112.819 60.5809 112.793 61.0659 112.763 61.5763C112.756 61.8316 112.738 62.0868 112.738 62.342C112.738 62.5972 112.73 62.8452 112.719 63.0931C112.701 63.578 112.675 64.0739 112.738 64.4786C112.793 64.8651 113.052 65.0182 113.382 65.2188C113.456 65.2625 113.537 65.3063 113.622 65.361C113.685 65.3683 113.755 65.3683 113.822 65.3683C114.584 65.3683 115.088 65.0802 115.461 64.8724L116.265 64.4239L116.006 65.1677C115.909 65.4302 115.95 65.6527 116.105 65.8204L116.098 65.8094Z" fill="black"/>
<path fill-rule="evenodd" clip-rule="evenodd" d="M124 60.3564C124.633 60.3823 125.192 60.2082 125.587 60.0156V59.997C125.471 59.9896 125.371 59.9785 125.27 59.9415L125.181 59.9155L125.125 59.8563C124.954 59.6636 124.846 59.4636 124.749 59.2895C124.648 59.0857 124.555 58.9042 124.358 58.7709C124.16 58.6375 123.896 58.5745 123.572 58.5745C122.991 58.5745 122.309 58.7894 121.899 58.9968L121.475 59.2228L121.367 58.8264C121.266 58.4671 121.314 58.0114 121.359 57.5336C121.419 56.989 121.486 56.2592 121.214 56.1073C121.139 56.0777 121.024 56.0703 120.845 56.0555C120.696 56.0555 120.514 56.0444 120.312 56.0036L120.052 55.9517L120.044 55.7369C120.037 55.5776 120.044 55.422 120.044 55.2738C120.055 54.8886 120.063 54.4959 119.865 54.3662C119.739 54.281 119.597 54.2477 119.407 54.2477C119.009 54.2477 118.495 54.4292 118.044 54.5959C117.783 54.6922 117.537 54.7774 117.303 54.8441V54.9775C117.537 54.9812 117.772 55.0071 117.943 55.1405L118.014 55.196L118.04 55.2701C118.122 55.5146 118.104 55.7739 118.092 56.0036C118.081 56.2185 118.066 56.4593 118.159 56.5333C118.204 56.5667 118.331 56.5667 118.483 56.5667H118.547C118.737 56.5667 118.934 56.5704 119.143 56.6223L119.396 56.6852V59.3784L118.822 59.0153C118.454 58.782 117.746 58.5301 117.143 58.5301C116.833 58.5301 116.58 58.593 116.412 58.7301C116.252 58.8449 116.178 59.0153 116.088 59.1969C115.98 59.434 115.854 59.7155 115.522 59.9304L115.422 60.0044L115.276 59.997C115.247 59.9896 115.217 59.9896 115.194 59.997C115.194 60.0044 115.194 60.0156 115.183 60.0267C115.667 60.2341 116.167 60.3564 116.573 60.3564C116.845 60.3564 117.087 60.3082 117.277 60.2082C117.347 60.1563 117.493 59.9933 117.608 59.8711C117.873 59.5562 118.159 59.2265 118.558 59.2265C119.016 59.2265 119.318 59.6266 119.385 59.8266C119.459 60.0415 119.433 60.3193 119.422 60.6231C119.407 60.7713 119.396 60.9157 119.396 61.0528V62.2197C119.396 62.4642 119.396 62.7124 119.385 62.9421C119.359 63.883 119.325 64.761 119.798 65.1463C119.996 65.3056 120.286 65.3871 120.7 65.3945H120.707C121.508 65.3945 121.896 65.1166 122.32 64.6313C122.182 64.6239 122.048 64.6388 121.799 64.6869L121.355 64.7795V60.7231C121.337 60.0785 121.318 59.4228 122.179 59.2339L122.331 59.2043L122.469 59.2784C122.749 59.434 122.931 59.6525 123.091 59.834C123.378 60.1526 123.553 60.3379 124.004 60.3564H124Z" fill="black"/>
<path fill-rule="evenodd" clip-rule="evenodd" d="M133.443 58.0319C133.481 58.6048 134.175 58.8547 134.851 58.8547C135.27 58.8547 135.681 58.7547 135.991 58.5855V58.5509C135.636 58.501 135.561 58.3049 135.542 58.2241C135.485 57.9627 135.515 57.7128 135.542 57.4898C135.579 57.2553 135.606 57.0323 135.523 56.8862C135.432 56.7093 135.247 56.5017 134.655 56.5017C134.062 56.5017 133.375 56.6901 132.854 56.8362L132.28 57.0015L132.39 56.5094C132.507 56.025 132.427 55.6444 132.171 55.3906C131.899 55.1292 131.423 54.9908 130.819 54.9908C130.113 54.9908 129.328 55.1869 128.864 55.4944L128.505 55.729L128.32 55.3829C128.184 55.1407 127.965 55.0292 127.607 55.0292C127.041 55.0292 126.301 55.3099 125.761 55.5137C125.701 55.5406 125.644 55.5598 125.587 55.579V55.7251C125.806 55.7251 126.025 55.7636 126.191 55.8866L126.282 55.9596L126.308 56.0596C126.425 56.7055 126.399 57.4398 126.388 58.1549C126.372 58.7701 126.354 59.3545 126.425 59.8735C126.459 60.1542 126.678 60.4041 126.916 60.6578C127.154 60.927 127.403 61.1999 127.441 61.5421C127.516 62.0534 127.479 62.6032 127.452 63.1261C127.426 63.599 127.395 64.0411 127.441 64.4102C127.512 64.9292 128.007 65.3483 128.6 65.3945H128.8C129.577 65.3945 130.015 65.0523 130.427 64.5948C130.272 64.5755 130.136 64.5871 129.962 64.6486L129.487 64.8101L129.468 64.3987C129.449 64.0296 129.464 63.6374 129.468 63.2568C129.494 62.3033 129.521 61.3268 129.049 60.8616L128.837 60.6386L129.102 60.4541C129.136 60.431 129.166 60.4041 129.211 60.3772C129.475 60.1811 129.887 59.8735 130.472 59.9235C130.721 59.9427 130.914 60.035 131.095 60.1003C131.242 60.1657 131.37 60.2157 131.491 60.2311C132.246 60.2964 132.858 60.0542 133.39 59.466C133.352 59.4506 133.315 59.4391 133.281 59.4198C133.198 59.4775 133.062 59.5506 132.858 59.5506C132.812 59.5506 132.767 59.5506 132.714 59.539L132.446 59.5006L132.412 59.1276C132.378 58.5894 132.318 57.8551 132.477 57.3899L132.522 57.2514L132.677 57.1899C132.933 57.0977 133.179 57.1361 133.318 57.2707C133.511 57.4398 133.477 57.7013 133.447 57.905V58.0319H133.443ZM130.408 59.0661V59.2699L130.178 59.3391C129.868 59.4314 129.585 59.6274 129.328 59.812C129.2 59.8927 129.079 59.9812 128.97 60.0465L128.29 60.4348L128.407 59.7659C128.46 59.4698 128.418 59.0046 128.373 58.5163C128.29 57.509 128.2 56.4594 128.766 55.9635C128.97 55.7828 129.253 55.6867 129.57 55.6867C129.736 55.6867 129.925 55.7136 130.117 55.7674L130.347 55.8328L130.366 56.0212C130.423 56.6248 130.412 57.2784 130.412 57.9127C130.4 58.2895 130.4 58.6855 130.412 59.0661H130.408Z" fill="black"/>
<path fill-rule="evenodd" clip-rule="evenodd" d="M182.8 60.3878C182.749 60.3664 182.706 60.3521 182.659 60.3379C182.586 60.3878 182.453 60.4519 182.276 60.4519C182.204 60.4519 182.128 60.4412 182.052 60.4234L181.843 60.3628L181.832 60.1847C181.774 59.5504 181.806 58.8733 181.839 58.2177C181.868 57.5085 181.904 56.8386 181.832 56.2685C181.796 56.0261 181.669 55.7339 180.983 55.7339C180.257 55.7339 179.347 56.0511 178.965 56.2863L178.611 56.5036L178.445 56.1687C178.354 55.987 178.156 55.7446 177.488 55.7446C176.744 55.7446 175.758 56.0475 175.075 56.3397L174.725 56.4858L174.595 56.1901C174.465 55.8979 174.223 55.7731 173.79 55.7731C173.288 55.7731 172.573 55.9656 171.775 56.3112L171.421 56.4609L171.298 56.158C171.222 55.987 171.064 55.7553 170.504 55.7553C169.883 55.7553 169.128 56.0297 168.688 56.24V56.354C168.886 56.3718 169.056 56.4466 169.186 56.5464C169.561 56.86 169.518 57.4515 169.475 58.0145C169.467 58.1678 169.449 58.3139 169.449 58.4386C169.449 58.6702 169.442 58.8947 169.435 59.1121C169.424 59.5112 169.406 59.8889 169.449 60.2132C169.536 60.7904 169.998 61.0826 170.847 61.0826C171.027 61.0826 171.215 61.0648 171.414 61.0399L172.053 60.9508L171.789 61.4105C171.544 61.831 171.15 62.2479 170.767 62.6612C170.349 63.1174 169.908 63.5842 169.684 64.0332C169.518 64.3788 169.536 64.6888 169.756 64.9525C169.98 65.2127 170.37 65.3837 170.829 65.3944C171.569 65.4015 171.999 65.0202 172.378 64.5997C172.306 64.5819 172.234 64.5677 172.183 64.5677H172.158L171.36 64.7672L171.753 64.1864C172.122 63.6341 172.573 63.1102 173.046 62.5543C173.144 62.4439 173.23 62.3227 173.328 62.2194C173.45 62.0662 173.588 61.9236 173.721 61.7882C174.165 61.3143 174.62 60.8225 174.693 60.2524C174.754 59.7179 174.729 59.1798 174.704 58.6203C174.682 58.0359 174.66 57.4444 174.729 56.8172L174.743 56.6533L174.935 56.5927C175.032 56.5607 175.357 56.4645 175.715 56.4645C176.17 56.4645 176.379 56.6284 176.484 56.7638L176.527 56.8137V56.8671C176.607 57.4088 176.589 58.0644 176.563 58.7023C176.545 59.2475 176.527 59.7642 176.57 60.1775C176.657 61.0149 177.672 61.0755 177.986 61.0755C178.643 61.0755 179.261 60.851 179.535 60.5054L179.972 59.953L180.156 60.598C180.257 60.9579 180.799 61.0791 181.276 61.0791C181.572 61.0791 181.879 61.0292 182.124 60.9472C182.168 60.9116 182.211 60.8795 182.254 60.851C182.456 60.7014 182.655 60.5481 182.807 60.3913L182.8 60.3878ZM172.775 59.8034C172.645 60.1668 172.086 60.4092 171.742 60.4341L171.392 60.4519L171.374 60.1811C171.313 59.1228 171.313 57.8613 171.374 56.8065L171.385 56.6604L171.54 56.5892C171.732 56.4965 171.898 56.4573 172.053 56.4573C172.226 56.4573 172.378 56.5108 172.497 56.6034C172.819 56.8529 172.804 57.3553 172.793 57.8756C172.793 57.954 172.786 58.0359 172.786 58.1072C172.786 58.2782 172.804 58.4813 172.819 58.6773C172.844 59.1228 172.869 59.5397 172.782 59.8069L172.775 59.8034ZM179.954 59.7927C179.813 60.1811 179.174 60.3628 178.939 60.3985L178.546 60.4733L178.52 60.149C178.466 59.1014 178.466 57.8506 178.52 56.8065L178.531 56.6604L178.69 56.5892C178.885 56.4965 179.058 56.4573 179.217 56.4573C179.391 56.4573 179.55 56.5108 179.672 56.6141C179.979 56.8564 179.976 57.3482 179.968 57.8649V58.0822C179.968 58.239 179.979 58.4315 179.994 58.6274C180.023 59.0871 180.048 59.5254 179.95 59.7927H179.954Z" fill="black"/>
<path fill-rule="evenodd" clip-rule="evenodd" d="M143.17 61.9574C143.17 62.2579 143.167 62.5662 143.159 62.8552C143.152 63.4062 143.144 63.9302 143.17 64.3233C143.23 65.1055 143.908 65.3867 144.523 65.3867C145 65.3867 145.488 65.2134 145.823 64.9398L146.181 64.6431L146.397 65.0168C146.524 65.2403 146.99 65.3945 147.523 65.3945C147.955 65.3945 148.342 65.2904 148.532 65.1247V65.0785C148.26 65.0322 148.19 64.8704 148.163 64.7895L148.156 64.7355L148.163 64.6855C148.201 64.5082 148.253 64.331 148.305 64.1614C148.398 63.8185 148.495 63.4987 148.432 63.1673C148.305 62.5585 147.504 62.335 146.792 62.335C146.394 62.335 145.972 62.4005 145.611 62.5315L145.13 62.6895V59.4836L145.212 59.4066C145.242 59.3796 145.268 59.3372 145.302 59.3102C145.436 59.16 145.615 58.9557 145.987 58.9056L146.129 58.8864L146.248 58.9519C146.528 59.1137 146.643 59.3102 146.729 59.4682C146.792 59.5607 146.829 59.6416 146.908 59.711C147.224 60.0192 147.754 60.0732 148.037 60.0732C148.506 60.0732 149.002 59.9537 149.367 59.7649C149.36 59.7456 149.356 59.7341 149.356 59.7187C148.745 59.6339 148.562 59.1985 148.424 58.8787C148.342 58.6822 148.264 58.4972 148.115 58.3739C147.932 58.2236 147.701 58.1427 147.414 58.1427C146.818 58.1427 146.121 58.4587 145.663 58.6667L145.194 58.8787L145.13 58.451C145.074 58.0233 145.104 57.5262 145.13 57.0445C145.182 56.2893 145.231 55.4339 144.877 55.1256C144.806 55.0679 144.687 54.9908 144.415 54.9908C143.945 54.9908 143.565 55.1526 143.167 55.3183C142.921 55.4223 142.671 55.5302 142.392 55.5996V55.6767C142.623 55.6882 142.95 55.7653 143.111 56.0234L143.137 56.0697L143.144 56.1159C143.196 56.5667 143.196 57.0715 143.181 57.5609C143.178 57.8576 143.17 58.1504 143.181 58.4317L143.196 58.9519L142.563 58.6513C142.052 58.4163 141.479 58.1389 140.849 58.1389C140.797 58.1389 140.748 58.1389 140.696 58.1466C140.256 58.1812 140.122 58.397 139.91 58.8247C139.765 59.0945 139.597 59.4027 139.273 59.6262L139.235 59.657L139.179 59.6763C139.116 59.6878 139.045 59.7071 138.971 59.7148C138.971 59.7302 138.971 59.7418 138.963 59.7534C139.343 59.9306 139.757 60.0809 140.238 60.0809C140.316 60.0809 140.391 60.0809 140.465 60.0655C140.923 60.0269 141.18 59.7649 141.486 59.4605C141.684 59.2794 141.888 59.079 142.153 58.9365L142.369 58.8209L142.567 58.9519C142.604 58.9866 142.649 59.0097 142.693 59.0289C142.872 59.133 143.092 59.2678 143.17 59.5067C143.286 59.8574 143.252 60.3968 143.219 61.0134C143.2 61.3139 143.178 61.6376 143.178 61.9381L143.17 61.9574ZM145.209 63.1557C145.425 62.9477 145.697 62.8667 146.047 62.9053L146.14 62.9168L146.215 62.9554C146.677 63.2444 146.598 64.0844 146.379 64.4157L146.33 64.5005L146.215 64.5467C146.077 64.5853 145.924 64.5968 145.782 64.5968H145.484L145.391 64.5198C145.1 64.3001 145.112 63.9418 145.123 63.6258C145.123 63.5256 145.13 63.4409 145.123 63.3561L145.115 63.2444L145.205 63.1519L145.209 63.1557Z" fill="black"/>
<path fill-rule="evenodd" clip-rule="evenodd" d="M159.661 65.1721C159.716 65.1261 159.752 65.0763 159.771 65.0073C159.609 64.9613 159.521 64.8501 159.495 64.7389L159.488 64.7121V64.6814C159.499 64.4745 159.525 64.2636 159.547 64.0796C159.62 63.4893 159.672 63.0293 159.349 62.6881C159.085 62.4044 158.56 62.2434 157.955 62.2434C157.566 62.2434 157.188 62.3009 156.851 62.4351L156.388 62.6038L156.363 62.1783C156.337 61.5189 156.348 60.8673 156.37 60.2309C156.388 59.5448 156.407 58.8931 156.363 58.2759C156.311 57.5399 155.761 57.0109 155.225 56.4896C154.888 56.1676 154.547 55.8341 154.33 55.4584L154.162 55.1594L154.51 55.0674C154.51 55.0406 154.521 55.0138 154.521 54.9908C154.385 55.0023 154.257 55.0023 154.121 55.0099C153.362 55.0291 152.507 55.0559 152.184 55.3051C151.946 55.4814 152.034 55.6923 152.602 56.2711C152.841 56.5126 153.039 56.7234 153.098 56.9304L153.186 57.2218L152.823 57.2754C152.547 57.3214 152.324 57.4173 152.085 57.5246L151.836 57.6281L151.66 57.4709C151.421 57.2639 151.098 57.2179 150.853 57.2179C150.277 57.2179 149.635 57.4709 149.367 57.7853C149.4 57.8198 149.422 57.8504 149.462 57.8773C149.532 57.8504 149.624 57.8236 149.726 57.8236C149.829 57.8236 149.925 57.8504 150.005 57.8964L150.159 57.9808V61.2774C150.159 61.6493 150.141 62.0288 150.13 62.4006C150.112 63.1251 150.079 63.8189 150.159 64.4208C150.24 65.0801 150.886 65.3216 151.396 65.3369H151.432C152.188 65.3369 152.632 64.9958 153.024 64.5396C152.995 64.5319 152.962 64.5204 152.929 64.5128C152.841 64.5779 152.716 64.6584 152.529 64.6584C152.481 64.6584 152.43 64.6508 152.379 64.6469L152.129 64.5971L152.111 64.3709C152.067 63.1979 152.067 61.956 152.078 60.7408C152.078 60.0086 152.093 59.2534 152.078 58.5059V58.4408L152.111 58.3833C152.393 57.8926 152.804 57.6051 153.373 57.4901L153.556 57.4518L153.692 57.5629C154.572 58.2414 154.528 59.5524 154.484 60.9593C154.473 61.2583 154.466 61.5649 154.466 61.8678C154.466 62.2204 154.448 62.5731 154.433 62.9104C154.404 63.5391 154.378 64.1256 154.459 64.5319C154.576 65.1223 155.277 65.3293 155.897 65.3293C156.44 65.3293 156.964 65.1721 157.265 64.9229L157.614 64.6354L157.826 65.0149C157.94 65.2258 158.428 65.3945 158.909 65.3945C159.239 65.3945 159.514 65.3178 159.653 65.1798L159.661 65.1721ZM157.797 63.8343C157.683 64.2521 157.36 64.5243 156.979 64.5243C156.873 64.5243 156.773 64.5051 156.671 64.4744L156.572 64.4208L156.517 64.3441C156.33 64.0681 156.223 63.4279 156.473 63.0676C156.66 62.7916 157.034 62.7073 157.408 62.8644C157.815 63.0293 157.896 63.4701 157.797 63.8304V63.8343Z" fill="black"/>
<path fill-rule="evenodd" clip-rule="evenodd" d="M165.631 60.6515C165.631 60.8559 165.616 61.0679 165.616 61.2646C165.604 61.6464 165.588 62.0011 165.623 62.2633C165.713 62.9266 166.405 63.2196 167.043 63.2196C167.355 63.2196 167.668 63.1541 167.95 63.023C168.254 62.8919 168.469 62.6836 168.688 62.4368C168.653 62.4291 168.614 62.4176 168.575 62.406C168.497 62.4446 168.364 62.5101 168.176 62.5101C168.102 62.5101 168.039 62.4985 167.965 62.4831L167.707 62.4291L167.688 62.2248C167.606 61.6155 167.652 60.9561 167.699 60.3122C167.738 59.6335 167.778 58.9972 167.688 58.4844C167.68 58.4651 167.652 58.3841 167.621 58.3263C167.406 57.8558 166.902 57.636 165.983 57.636C165.291 57.636 164.478 57.7671 163.766 57.8867C163.544 57.9175 163.332 57.96 163.133 57.9869L162.719 58.0525L162.691 57.717C162.68 57.4471 162.691 57.154 162.691 56.8725C162.719 56.1823 162.73 55.3995 162.386 55.1103C162.32 55.0563 162.207 54.9908 161.96 54.9908H161.945C161.479 54.9908 161.042 55.1604 160.572 55.3301C160.31 55.4304 160.052 55.5268 159.771 55.6078V55.6617C160.009 55.6733 160.213 55.7466 160.357 55.87C160.717 56.1746 160.678 56.6566 160.639 57.1656C160.612 57.5551 160.572 58.0255 160.78 58.1566C160.866 58.2183 161.022 58.2222 161.311 58.2299C161.433 58.2376 161.573 58.2376 161.718 58.2492L162.382 58.2877L161.984 58.708C161.878 58.8199 161.745 58.9124 161.605 59.0049C161.456 59.1052 161.311 59.2016 161.206 59.3289C160.815 59.7762 160.838 60.7864 160.866 61.6695C160.873 61.897 160.881 62.1284 160.881 62.352C160.881 62.6142 160.866 62.8764 160.854 63.1309C160.827 63.8212 160.795 64.5307 161.002 64.8585C161.284 65.3058 161.777 65.3945 162.148 65.3945C162.856 65.3945 163.653 65.0551 164.005 64.6348C163.958 64.6155 163.903 64.5962 163.86 64.5808C163.774 64.6348 163.641 64.7004 163.442 64.7004C163.375 64.7004 163.309 64.6888 163.243 64.6734L162.942 64.6078L162.973 64.3649C163.059 63.7093 163.008 62.9266 162.953 62.1129C162.895 61.1991 162.84 60.2466 162.973 59.433C163.039 59.0281 163.559 58.6039 163.978 58.5075C164.13 58.4767 164.279 58.4612 164.439 58.4612C164.971 58.4612 165.412 58.6386 165.565 58.9201C165.729 59.2247 165.69 59.6682 165.659 60.1579C165.651 60.3276 165.639 60.505 165.639 60.6476L165.631 60.6515Z" fill="black"/>
<path d="M115.205 27.4954C120.565 27.4954 122.614 30.7746 122.614 37.3404C122.614 38.3196 122.614 39.4278 122.482 40.6234H112.499C112.631 43.523 113.765 45.1853 116.159 45.1853C118.554 45.1853 119.777 44.4604 120.608 44.4604C121.652 44.4604 122.09 45.3978 122.048 48.2974C120.608 49.1058 118.298 49.789 114.941 49.789C108.532 49.789 106.266 44.9728 106.266 38.5815C106.266 32.1902 109.056 27.4992 115.201 27.4992L115.205 27.4954ZM114.987 31.9701C114.029 31.9701 113.287 32.4824 113.155 32.5242C113.023 32.9948 112.457 34.6989 112.457 37.1279L117.207 36.8281C117.339 33.8032 116.683 31.9701 114.983 31.9701H114.987Z" fill="black"/>
<path d="M124.101 28.1904H126.699V26.0412C126.699 23.7659 128.08 22.8213 131.976 23.0775V28.1865H135.871V32.569H131.976V43.4333C131.976 44.852 132.543 45.3224 133.598 45.3224C134.408 45.3224 135.221 45.1082 135.546 44.9362L135.991 48.6723C135.221 49.1886 133.352 49.789 131.242 49.789C128.036 49.789 126.414 47.984 126.414 44.2899V32.5652H124.101V28.1827V28.1904Z" fill="black"/>
<path d="M138.963 21.3536C138.963 21.3536 140.442 20.8073 141.92 20.8073C144.41 20.8073 144.749 21.3948 144.749 23.9167L144.79 29.7163C145.93 28.5825 147.875 27.49 150.241 27.49C153.788 27.49 155.312 29.5891 155.312 33.2896V49.0458H149.568V34.5505C149.568 33.1624 149.019 32.4065 147.751 32.4065C146.483 32.4065 145.343 32.994 144.753 33.6226V49.0458H138.967V21.3536H138.963Z" fill="black"/>
<path d="M162.548 20.0679C164.269 20.0679 164.972 20.9903 164.972 22.8761C164.972 24.5528 163.994 25.6432 161.451 25.6432C159.613 25.6432 159.027 24.4258 159.027 22.7902C159.027 21.1546 159.926 20.0642 162.548 20.0642V20.0679ZM159.264 49.0459V28.4551C159.968 28.119 161.103 27.9099 162.12 27.9099C164.192 27.9099 164.624 28.5373 164.624 30.7591V49.0421H159.264V49.0459Z" fill="black"/>
<path d="M185.037 38.7504C185.037 45.4844 182.377 49.789 175.753 49.789C170.692 49.789 167.945 45.1845 167.945 38.4505C167.945 33.8878 169.042 27.4954 177.143 27.4954C182.797 27.4954 185.033 31.7165 185.033 38.7504H185.037ZM176.515 45.3136C177.233 45.3136 177.864 45.1428 178.413 44.7594C178.499 44.4595 179.299 42.2427 179.299 38.6213C179.299 33.8043 178.541 32.0581 176.598 32.0581C175.88 32.0581 175.249 32.229 174.614 32.5288C174.321 33.2121 173.686 35.0873 173.686 38.6251C173.686 43.4839 174.656 45.3174 176.512 45.3174L176.515 45.3136Z" fill="black"/>
<path d="M191.725 28.1904H194.323V26.0412C194.323 23.7659 195.704 22.8213 199.599 23.0775V28.1865H203.495V32.569H199.599V43.4333C199.599 44.852 200.167 45.3224 201.222 45.3224C202.032 45.3224 202.845 45.1082 203.17 44.9362L203.615 48.6723C202.845 49.1886 200.976 49.789 198.866 49.789C195.66 49.789 194.038 47.984 194.038 44.2899V32.5652H191.725V28.1827V28.1904Z" fill="black"/>
<path d="M213.633 27.4954C218.75 27.4954 220.706 30.7746 220.706 37.3404C220.706 38.3196 220.706 39.4278 220.58 40.6234H211.055C211.181 43.523 212.262 45.1853 214.548 45.1853C216.834 45.1853 218.002 44.4604 218.794 44.4604C219.791 44.4604 220.21 45.3978 220.165 48.2974C218.794 49.1058 216.586 49.789 213.381 49.789C207.264 49.789 205.101 44.9728 205.101 38.5815C205.101 32.1902 207.765 27.4992 213.63 27.4992L213.633 27.4954ZM213.426 31.9701C212.511 31.9701 211.803 32.4824 211.677 32.5242C211.551 32.9948 211.01 34.6989 211.01 37.1279L215.545 36.8281C215.671 33.8032 215.045 31.9701 213.422 31.9701H213.426Z" fill="black"/>
<path d="M224.422 21.4024C225.157 21.103 226.384 20.8073 227.368 20.8073C229.574 20.8073 230.026 21.4441 230.026 23.9572V43.5802C230.026 44.7704 230.597 45.3238 231.497 45.3238C232.109 45.3238 232.764 45.1533 233.052 45.0244L233.339 48.7693C232.276 49.3644 230.805 49.789 229.17 49.789C226.268 49.789 224.425 48.1742 224.425 44.4255V21.3986L224.422 21.4024Z" fill="black"/>
<path d="M243.021 27.4954C248.385 27.4954 250.431 30.7746 250.431 37.3404C250.431 38.3196 250.431 39.4278 250.299 40.6234H240.316C240.448 43.523 241.581 45.1853 243.976 45.1853C246.371 45.1853 247.594 44.4604 248.42 44.4604C249.468 44.4604 249.903 45.3978 249.86 48.2974C248.42 49.1058 246.111 49.789 242.757 49.789C236.349 49.789 234.082 44.9728 234.082 38.5815C234.082 32.1902 236.873 27.4992 243.017 27.4992L243.021 27.4954ZM242.804 31.9701C241.845 31.9701 241.104 32.4824 240.972 32.5242C240.84 32.9948 240.273 34.6989 240.273 37.1279L245.024 36.8281C245.156 33.8032 244.5 31.9701 242.8 31.9701H242.804Z" fill="black"/>
<path d="M261.108 27.4954C263.952 27.4954 265.664 28.5165 265.999 28.7747C265.999 31.5875 265.374 33.0793 264.283 33.0793C263.572 33.0793 262.612 32.3542 261.19 32.3542C260.646 32.3542 260.143 32.4833 259.645 32.6959C259.436 33.0793 258.598 35.2961 258.598 38.7048C258.598 43.0967 260.021 45.0555 262.236 45.0555C263.449 45.0555 264.618 44.6721 265.411 44.2469L266.037 48.0846C264.991 48.8514 263.36 49.789 260.687 49.789C255.587 49.789 252.661 45.9095 252.661 38.7922C252.661 31.6748 255.546 27.4954 261.108 27.4954Z" fill="black"/>
<path d="M284.615 38.7504C284.615 45.4844 281.958 49.789 275.329 49.789C270.267 49.789 267.523 45.1845 267.523 38.4505C267.523 33.8878 268.621 27.4954 276.723 27.4954C282.379 27.4954 284.615 31.7165 284.615 38.7504ZM276.088 45.3136C276.806 45.3136 277.437 45.1428 277.986 44.7594C278.072 44.4595 278.873 42.2427 278.873 38.6213C278.873 33.8043 278.113 32.0581 276.171 32.0581C275.453 32.0581 274.821 32.229 274.186 32.5288C273.893 33.2121 273.258 35.0873 273.258 38.6251C273.258 43.4839 274.228 45.3174 276.084 45.3174L276.088 45.3136Z" fill="black"/>
<path d="M287.587 28.0416C288.258 27.7461 289.512 27.4954 290.387 27.4954C291.851 27.4954 292.521 27.7909 293.147 29.8895C293.731 29.3022 296.114 27.4954 299 27.4954C301.886 27.4954 302.679 29.2162 302.973 29.9718C303.643 29.2573 306.362 27.4954 309.08 27.4954C313.053 27.4954 313.596 30.0167 313.596 34.3859V49.0459H307.951V35.0143C307.951 33.2075 307.866 32.4108 306.321 32.4108C305.36 32.4108 303.77 33.2487 303.394 33.5442V49.0459H297.79V35.0143C297.79 33.2075 297.704 32.4108 296.2 32.4108C295.031 32.4108 293.355 33.4619 293.273 33.5442V49.0459H287.587V28.0416Z" fill="black"/>
<path d="M317.699 28.0482H316.569V27.4954H319.541V28.0482H318.411V31.9541H317.696V28.0482H317.699Z" fill="black"/>
<path d="M320.687 27.4954H321.593L322.232 30.1175C322.452 31.0026 322.505 31.5817 322.505 31.5817H322.535C322.535 31.5817 322.602 31.0026 322.815 30.1175L323.441 27.4954H324.34L324.743 31.9541H324.127L323.931 29.3578C323.867 28.5317 323.854 27.9675 323.854 27.9675H323.831C323.831 27.9675 323.737 28.576 323.541 29.3578L322.902 31.9541H322.133L321.493 29.3578C321.297 28.5649 321.203 27.9675 321.203 27.9675H321.167C321.167 27.9675 321.16 28.5317 321.104 29.3578L320.907 31.9541H320.284L320.687 27.4954Z" fill="black"/>
<path d="M54.2507 49.2413C57.3053 50.262 59.9673 50.7779 64.1436 51.2266C77.4051 52.6548 96.7982 45.8689 97.6096 28.2405C95.3663 39.584 81.013 54.9093 54.2507 49.2413Z" fill="#00A54F"/>
<path d="M20.7514 74.9268C35.0075 82.2661 61.6426 84.9804 79.8281 71.3039C81.3947 70.1 81.8583 68.3428 81.3012 67.0305C81.1741 66.7015 80.9311 66.3238 80.5797 66.0359C79.6487 65.2246 78.0447 64.9106 75.8127 65.6471C55.6045 72.3246 32.4352 64.9143 35.6692 49.3572C35.9795 48.0075 36.4992 46.4633 37.0339 45.3081C34.7196 45.252 32.2557 45.4539 29.5675 46.0409C26.8569 46.6316 24.6099 47.4915 22.7405 48.5346C20.2018 49.9516 18.2689 51.6154 16.8481 53.41C16.321 54.0755 15.8648 54.7597 15.4723 55.4589C15.4723 55.4626 15.4685 55.4664 15.4648 55.4701C15.4573 55.4851 15.4498 55.5 15.4423 55.515C13.8234 58.4424 13.3486 61.5793 13.6627 64.4918C13.6627 64.503 13.6627 64.518 13.6664 64.5292C13.6664 64.5329 13.6664 64.5404 13.6664 64.5442C14.0104 67.61 15.2292 70.4216 16.8967 72.4704C16.9977 72.5901 17.0986 72.7134 17.2033 72.8331C18.2726 73.5621 19.4578 74.2613 20.7477 74.9268" fill="#068BCC"/>
<path d="M89.6871 10.2531C89.6347 10.2083 89.5824 10.1671 89.53 10.1223C87.0101 9.0642 84.3368 8.14446 81.5253 7.37427C46.6872 3.02231 20.6689 14.048 8.83185 28.7452C8.32337 29.4967 7.85228 30.2669 7.40363 31.0483C6.99236 31.7624 6.59979 32.484 6.2446 33.2168C6.22965 33.2467 6.21095 33.2766 6.196 33.3066C5.94176 33.83 5.70248 34.3609 5.47815 34.8955C5.16783 35.6283 4.89864 36.3574 4.64814 37.0902C4.5098 37.4977 4.37894 37.9015 4.2593 38.3091C3.83308 39.7485 3.51154 41.1879 3.30591 42.6199C3.29843 42.676 3.29469 42.7321 3.28721 42.7881C3.23487 43.1583 3.19001 43.5284 3.15262 43.8986C3.14514 43.992 3.13766 44.0855 3.13018 44.1827C3.06289 44.938 3.02176 45.6932 3.01428 46.4447C3.01428 46.512 3.01428 46.5793 3.01428 46.6466C3.01428 47.4243 3.04045 48.1982 3.10027 48.9646C3.11897 49.2114 3.14888 49.4544 3.17505 49.7012C3.19374 49.8732 3.20496 50.0414 3.22739 50.2134C3.25357 50.4153 3.28721 50.6209 3.31712 50.8228C3.34703 51.0322 3.37321 51.2453 3.41059 51.4547C3.44798 51.6827 3.49659 51.9108 3.54145 52.1389C3.5751 52.3221 3.60875 52.5053 3.64614 52.6847C3.70222 52.9539 3.76952 53.2194 3.83682 53.4886C3.87047 53.6269 3.90038 53.7652 3.93403 53.9036C4.03123 54.2737 4.13592 54.6401 4.24435 55.0065C4.25556 55.0402 4.26304 55.0776 4.27426 55.1112C4.34155 55.3281 4.41633 55.5449 4.48737 55.7618C4.54719 55.945 4.60327 56.1282 4.66683 56.3076C4.90985 56.9993 5.18652 57.6835 5.48189 58.3602C5.52675 58.4612 5.56414 58.5621 5.60901 58.6631C5.68004 58.8201 5.75856 58.9734 5.8296 59.1304C5.93802 59.3622 6.04271 59.594 6.15487 59.8221C6.48388 60.4876 6.84281 61.1419 7.22417 61.7887C7.28399 61.8896 7.33633 61.9906 7.39615 62.0878C7.53823 62.3233 7.68778 62.5589 7.83733 62.7944C7.92332 62.929 8.00184 63.0636 8.09157 63.1982C8.49536 63.8189 8.92532 64.4283 9.37397 65.0302C9.45623 65.1424 9.53474 65.2546 9.62073 65.3667C9.73664 65.52 9.86002 65.6696 9.9834 65.8229C10.1404 66.0248 10.2937 66.2229 10.4582 66.4211C10.5891 66.5818 10.7312 66.7389 10.8658 66.8996C11.0228 67.0866 11.1761 67.2735 11.3406 67.4567C11.8752 68.0624 12.436 68.6531 13.0156 69.2364C13.0903 69.3112 13.1614 69.3897 13.2399 69.4645C13.3969 69.6177 13.5577 69.771 13.7185 69.9206C13.8979 70.0926 14.0736 70.2646 14.2568 70.4365C14.4999 70.6646 14.7541 70.8852 15.0046 71.1058C15.1093 71.1955 15.2065 71.2927 15.3149 71.3825C15.5729 71.6068 15.8384 71.8274 16.1038 72.0442C16.2085 72.1302 16.3094 72.2199 16.4179 72.3059C16.6871 72.4966 16.9563 72.6611 17.2068 72.8256C17.1021 72.706 17.0011 72.5863 16.9002 72.463C15.2327 70.4141 14.0138 67.6025 13.6699 64.5367C13.6699 64.533 13.6699 64.5255 13.6699 64.5218C13.6699 64.5106 13.6699 64.4956 13.6661 64.4844C13.3521 61.5719 13.8269 58.435 15.4458 55.5075C15.4533 55.4926 15.4607 55.4776 15.4682 55.4627C15.4682 55.4589 15.472 55.4552 15.4757 55.4514C15.8683 54.756 16.3244 54.0681 16.8516 53.4026C18.2723 51.608 20.2053 49.9442 22.7439 48.5272C24.6133 47.4841 26.8603 46.6241 29.571 46.0334C32.2591 45.4464 34.723 45.2408 37.0373 45.3006C43.3634 45.4576 48.579 47.5775 54.247 49.2301C54.247 49.2301 54.247 49.2301 54.2507 49.2301C81.0131 54.8981 95.3663 39.5765 97.6096 28.2293C98.0283 21.7387 95.5121 15.0687 89.6871 10.2419V10.2531Z" fill="#8FC441"/>
<path d="M15.0086 71.1132C14.7581 70.8926 14.5039 70.6683 14.2608 70.444C14.0776 70.2757 13.9019 70.1 13.7225 69.928C13.5617 69.7747 13.4009 69.6252 13.2439 69.4719C13.1691 69.3971 13.0943 69.3186 13.0196 69.2438C12.44 68.6606 11.8792 68.0699 11.3446 67.4642C11.1838 67.281 11.0268 67.094 10.8698 66.9071C10.7352 66.7463 10.5968 66.5893 10.4622 66.4285C10.3015 66.2304 10.1444 66.0285 9.9874 65.8303C9.86775 65.677 9.74438 65.5275 9.62473 65.3742C9.53874 65.262 9.46023 65.1499 9.37797 65.0377C8.92932 64.4357 8.49936 63.8263 8.09557 63.2057C8.00957 63.0711 7.92732 62.9365 7.84133 62.8019C7.69178 62.5663 7.54222 62.3345 7.40015 62.0953C7.34033 61.9943 7.28799 61.8934 7.22817 61.7962C6.85055 61.1493 6.48788 60.4913 6.15887 59.8296C6.04671 59.6015 5.94202 59.3697 5.83359 59.1379C5.75882 58.9808 5.68404 58.8276 5.61301 58.6705C5.56814 58.5696 5.52701 58.4686 5.48589 58.3677C5.19052 57.691 4.91759 57.0068 4.67083 56.3151C4.60727 56.1356 4.55119 55.9524 4.49137 55.7692C4.42033 55.5524 4.34181 55.3355 4.27825 55.1187C4.26704 55.085 4.25956 55.0476 4.24834 55.014C4.13618 54.6476 4.03149 54.2812 3.93802 53.911C3.90064 53.7727 3.87447 53.6344 3.84082 53.496C3.77726 53.2268 3.70622 52.9614 3.65014 52.6922C3.61275 52.5127 3.5791 52.3295 3.54545 52.1463C3.50059 51.9183 3.45198 51.6902 3.41459 51.4621C3.38094 51.2528 3.35103 51.0396 3.32112 50.8303C3.29121 50.6284 3.25756 50.4265 3.23139 50.2208C3.20896 50.0526 3.19774 49.8806 3.17905 49.7086C3.15288 49.4619 3.12297 49.2188 3.10427 48.9721C3.04445 48.2019 3.01828 47.4317 3.01828 46.654C3.01828 46.5867 3.01828 46.5194 3.01828 46.4521C3.02576 45.7006 3.06689 44.9454 3.13418 44.1902C3.14166 44.0967 3.1454 44.0032 3.15662 43.906C3.194 43.5359 3.23887 43.1657 3.29121 42.7956C3.29869 42.7395 3.30243 42.6834 3.30991 42.6273C3.51554 41.1954 3.83708 39.756 4.2633 38.3165C4.38294 37.909 4.5138 37.5052 4.65213 37.0977C4.90263 36.3649 5.17557 35.6358 5.48215 34.903C5.70648 34.3683 5.9495 33.8374 6.2 33.314C6.21495 33.2841 6.23365 33.2542 6.2486 33.2243C6.60752 32.4877 7.0001 31.7661 7.40763 31.0558C7.85628 30.2744 8.32737 29.5042 8.83585 28.7527C9.14991 28.2554 9.47518 27.7619 9.80793 27.2796C23.4994 7.35929 52.5499 -0.398713 80.5684 7.11253C80.8899 7.19852 81.2115 7.28825 81.5293 7.37798C84.3408 8.14444 87.0141 9.06792 89.534 10.126C79.9365 2.06889 66.0133 -1.03057 49.6224 0.296703C19.0951 2.76805 -2.97127 23.6268 0.326348 46.8896C1.01803 51.765 2.78274 56.3599 5.39989 60.5511C7.69925 64.2338 10.6791 67.6623 14.1674 70.5898C14.8777 71.1618 15.6666 71.7825 16.4181 72.3171C16.3134 72.2311 16.2125 72.1414 16.1078 72.0554C15.8424 71.8348 15.5769 71.618 15.3189 71.3936C15.2142 71.3039 15.1133 71.2104 15.0086 71.117V71.1132Z" fill="#00A54F"/>
<circle cx="8.8322" cy="28.7452" r="0.18694" fill="white"/>
<path d="M9.80436 27.2721C9.47161 27.7544 9.14633 28.2479 8.83228 28.7452C20.6693 14.048 46.6876 3.02228 81.5294 7.37798C81.2079 7.28825 80.8864 7.19852 80.5686 7.11253C52.55 -0.398715 23.4996 7.35929 9.80436 27.2721Z" fill="white"/>
</svg>
